# File created by Blade
# Date/Time:  Thu Sep 25 18:48:06 2014
# Frame Rate: 120.000 fps
#------------------------------------------------------
:FULLY-SPECIFIED
:DEGREES
2030
root 0.697883 32.932348 2.549252 6.917719 -7.048649 -0.405536
Spine -13.274613 -3.660029 -1.884103
Head 17.562800 -0.156404 19.681414
LeftShoulder 2.620079 31.267055 3.029663
LeftArm 141.409923 64.688314 48.411856
LeftForeArm 28.159896 -0.000000 122.606375
LeftHand -0.766121 0.000000 -19.333784
LeftHandThumb1 -26.253704 0.000000 33.147579
RightShoulder -25.623876 24.660579 -45.976826
RightArm 115.128997 35.099429 90.446854
RightForeArm 24.502608 -0.000000 153.394293
RightHand 8.720379 0.000000 4.798664
RightHandThumb1 -24.326973 -0.000000 -32.862282
LeftUpLeg 3.107582 16.078140 4.479875
LeftLeg -3.065500 -0.000000 0.000000
LeftFoot -8.282747 2.981308 -16.301955
LeftToeBase 11.335284 -0.000000 -0.000000
RightUpLeg -0.430397 -4.758933 -5.476110
RightLeg -0.411011 -0.000000 0.000000
RightFoot -5.733561 -2.126548 4.636440
RightToeBase 0.562179 -0.000000 -0.000000
2031
root 0.692901 32.931629 2.546659 6.916262 -7.079998 -0.417735
Spine -13.263588 -3.668181 -1.891132
Head 17.491239 -0.146720 19.650288
LeftShoulder 2.595774 31.311257 2.994024
LeftArm 141.352935 64.661279 48.392660
LeftForeArm 28.208124 0.000000 122.627956
LeftHand -0.812828 -0.000000 -19.313183
LeftHandThumb1 -26.253704 0.000000 33.147579
RightShoulder -25.609924 24.654874 -45.976436
RightArm 115.125123 35.062134 90.455248
RightForeArm 24.491022 -0.000000 153.400116
RightHand 8.729229 -0.000000 4.758835
RightHandThumb1 -24.326973 -0.000000 -32.862282
LeftUpLeg 3.114141 16.087000 4.498955
LeftLeg -3.066753 -0.000000 0.000000
LeftFoot -8.285769 2.991581 -16.331862
LeftToeBase 11.250383 -0.000000 -0.000000
RightUpLeg -0.429780 -4.750099 -5.457590
RightLeg -0.428885 -0.000000 0.000000
RightFoot -5.706071 -2.114352 4.585371
RightToeBase 0.506563 -0.000000 -0.000000
2032
root 0.689072 32.930528 2.544621 6.908432 -7.113504 -0.422109
Spine -13.246803 -3.693821 -1.903236
Head 17.430256 -0.124985 19.621345
LeftShoulder 2.558142 31.330951 2.961257
LeftArm 141.290501 64.668713 48.347171
LeftForeArm 28.185749 -0.000000 122.646623
LeftHand -0.784489 -0.000000 -19.402758
LeftHandThumb1 -26.253704 0.000000 33.147579
RightShoulder -25.570126 24.632453 -45.942144
RightArm 115.192189 35.015433 90.515519
RightForeArm 24.585281 -0.000000 153.389128
RightHand 8.748211 -0.000000 4.883617
RightHandThumb1 -24.326973 -0.000000 -32.862282
LeftUpLeg 3.126899 16.083849 4.508601
LeftLeg -3.069259 -0.000000 0.000000
LeftFoot -8.319055 3.032144 -16.314050
LeftToeBase 11.332635 -0.000000 -0.000000
RightUpLeg -0.418404 -4.710012 -5.452879
RightLeg -0.452136 -0.000000 0.000000
RightFoot -5.708341 -2.105959 4.600354
RightToeBase 0.525933 -0.000000 -0.000000
2033
root 0.684515 32.930202 2.542564 6.908226 -7.136924 -0.435872
Spine -13.248097 -3.705636 -1.906944
Head 17.340132 -0.211709 19.471190
LeftShoulder 2.563227 31.367607 2.945101
LeftArm 141.277640 64.654280 48.351173
LeftForeArm 28.257885 -0.000000 122.659780
LeftHand -0.838565 0.000000 -19.355934
LeftHandThumb1 -26.253704 0.000000 33.147579
RightShoulder -25.528453 24.652582 -45.949661
RightArm 115.131006 35.041801 90.388382
RightForeArm 24.367814 -0.000000 153.404186
RightHand 8.711927 -0.000000 4.746661
RightHandThumb1 -24.326973 -0.000000 -32.862282
LeftUpLeg 3.126214 16.091395 4.527363
LeftLeg -3.057460 -0.000000 0.000000
LeftFoot -8.326739 3.030270 -16.345068
LeftToeBase 11.301684 -0.000000 -0.000000
RightUpLeg -0.419882 -4.691284 -5.434593
RightLeg -0.455190 -0.000000 0.000000
RightFoot -5.722436 -2.082317 4.653221
RightToeBase 0.548016 -0.000000 -0.000000
2034
root 0.680814 32.929822 2.539818 6.907788 -7.164204 -0.438439
Spine -13.236621 -3.736216 -1.924918
Head 17.267112 -0.232305 19.439878
LeftShoulder 2.523928 31.377957 2.915697
LeftArm 141.265942 64.634288 48.353765
LeftForeArm 28.277160 -0.000000 122.666520
LeftHand -0.848246 -0.000000 -19.357398
LeftHandThumb1 -26.253704 0.000000 33.147579
RightShoulder -25.507816 24.669610 -45.949892
RightArm 115.126996 35.003546 90.409959
RightForeArm 24.459496 -0.000000 153.411203
RightHand 8.676034 0.000000 4.816423
RightHandThumb1 -24.326973 -0.000000 -32.862282
LeftUpLeg 3.120927 16.100669 4.533023
LeftLeg -3.046104 -0.000000 0.000000
LeftFoot -8.331094 3.062437 -16.300465
LeftToeBase 11.311264 -0.000000 -0.000000
RightUpLeg -0.427289 -4.672252 -5.426893
RightLeg -0.460129 -0.000000 0.000000
RightFoot -5.704016 -2.084140 4.609613
RightToeBase 0.506154 -0.000000 -0.000000
2035
root 0.676996 32.929367 2.537399 6.901998 -7.189554 -0.445688
Spine -13.211820 -3.741078 -1.939481
Head 17.195445 -0.240281 19.429390
LeftShoulder 2.507674 31.405904 2.896299
LeftArm 141.222272 64.592644 48.323055
LeftForeArm 28.307529 -0.000000 122.681467
LeftHand -0.878751 -0.000000 -19.368919
LeftHandThumb1 -26.253704 0.000000 33.147579
RightShoulder -25.516413 24.688433 -45.958493
RightArm 115.101009 34.969752 90.370819
RightForeArm 24.486254 0.000000 153.396709
RightHand 8.639245 -0.000000 4.838052
RightHandThumb1 -24.326973 -0.000000 -32.862282
LeftUpLeg 3.127624 16.112286 4.544312
LeftLeg -3.045112 -0.000000 0.000000
LeftFoot -8.339892 3.074347 -16.311321
LeftToeBase 11.280205 -0.000000 -0.000000
RightUpLeg -0.417128 -4.622382 -5.418550
RightLeg -0.482687 -0.000000 0.000000
RightFoot -5.712853 -2.093321 4.647860
RightToeBase 0.580912 -0.000000 -0.000000
2036
root 0.673218 32.929213 2.534464 6.903493 -7.213799 -0.455379
Spine -13.187509 -3.761246 -1.950628
Head 17.168376 -0.155131 19.573847
LeftShoulder 2.462543 31.441697 2.860294
LeftArm 141.146034 64.547834 48.271201
LeftForeArm 28.298211 -0.000000 122.690898
LeftHand -0.890546 -0.000000 -19.363881
LeftHandThumb1 -26.253704 0.000000 33.147579
RightShoulder -25.507070 24.611796 -45.874783
RightArm 115.215477 34.946187 90.347229
RightForeArm 24.351290 0.000000 153.362550
RightHand 8.671110 -0.000000 4.726899
RightHandThumb1 -24.326973 -0.000000 -32.862282
LeftUpLeg 3.125937 16.098784 4.557914
LeftLeg -3.039934 -0.000000 0.000000
LeftFoot -8.344513 3.107349 -16.320259
LeftToeBase 11.227389 -0.000000 -0.000000
RightUpLeg -0.427939 -4.590603 -5.404757
RightLeg -0.478677 -0.000000 0.000000
RightFoot -5.704689 -2.106568 4.617488
RightToeBase 0.530128 -0.000000 -0.000000
2037
root 0.669500 32.929033 2.532482 6.889370 -7.238042 -0.462371
Spine -13.142512 -3.772713 -1.960321
Head 17.109146 -0.094091 19.625834
LeftShoulder 2.443984 31.439023 2.821309
LeftArm 141.139307 64.529060 48.293118
LeftForeArm 28.361233 -0.000000 122.694758
LeftHand -0.871493 -0.000000 -19.327412
LeftHandThumb1 -26.253704 0.000000 33.147579
RightShoulder -25.524816 24.576042 -45.850165
RightArm 115.279069 34.889279 90.369332
RightForeArm 24.431145 0.000000 153.339778
RightHand 8.645403 -0.000000 4.826336
RightHandThumb1 -24.326973 -0.000000 -32.862282
LeftUpLeg 3.140261 16.104631 4.571765
LeftLeg -3.035359 -0.000000 0.000000
LeftFoot -8.361801 3.126175 -16.357419
LeftToeBase 11.277493 -0.000000 -0.000000
RightUpLeg -0.422862 -4.566784 -5.393636
RightLeg -0.471981 -0.000000 0.000000
RightFoot -5.725186 -2.096320 4.657925
RightToeBase 0.573514 -0.000000 -0.000000
2038
root 0.666464 32.928769 2.529326 6.889056 -7.260418 -0.469287
Spine -13.121974 -3.795048 -1.969642
Head 17.068803 -0.058168 19.663990
LeftShoulder 2.414620 31.437100 2.781920
LeftArm 141.133695 64.520233 48.310118
LeftForeArm 28.404706 -0.000000 122.711557
LeftHand -0.911038 0.000000 -19.342127
LeftHandThumb1 -26.253704 0.000000 33.147579
RightShoulder -25.530021 24.565953 -45.847159
RightArm 115.264598 34.871121 90.335805
RightForeArm 24.402006 -0.000000 153.341705
RightHand 8.669140 -0.000000 4.832249
RightHandThumb1 -24.326973 -0.000000 -32.862282
LeftUpLeg 3.138484 16.097902 4.580074
LeftLeg -3.034266 -0.000000 0.000000
LeftFoot -8.363708 3.159997 -16.306493
LeftToeBase 11.273250 -0.000000 -0.000000
RightUpLeg -0.436498 -4.548176 -5.382774
RightLeg -0.462620 -0.000000 0.000000
RightFoot -5.704923 -2.100600 4.612323
RightToeBase 0.491435 -0.000000 -0.000000
2039
root 0.663813 32.928437 2.526816 6.886858 -7.277891 -0.475452
Spine -13.101134 -3.808382 -1.979451
Head 17.010829 -0.053569 19.671790
LeftShoulder 2.410372 31.466050 2.752210
LeftArm 141.059522 64.492843 48.263452
LeftForeArm 28.436532 -0.000000 122.715827
LeftHand -0.887915 -0.000000 -19.380901
LeftHandThumb1 -26.253704 0.000000 33.147579
RightShoulder -25.541262 24.542240 -45.846457
RightArm 115.264512 34.850237 90.322063
RightForeArm 24.391741 -0.000000 153.344584
RightHand 8.625515 0.000000 4.793683
RightHandThumb1 -24.326973 -0.000000 -32.862282
LeftUpLeg 3.143213 16.085237 4.588986
LeftLeg -3.036112 -0.000000 0.000000
LeftFoot -8.385854 3.186314 -16.329083
LeftToeBase 11.284989 -0.000000 -0.000000
RightUpLeg -0.444816 -4.524554 -5.372760
RightLeg -0.455178 -0.000000 0.000000
RightFoot -5.708865 -2.107826 4.615940
RightToeBase 0.489487 -0.000000 -0.000000
2040
root 0.660896 32.928610 2.524839 6.888392 -7.298217 -0.480973
Spine -13.089410 -3.822179 -1.991806
Head 16.969528 -0.054864 19.685412
LeftShoulder 2.413929 31.465749 2.716240
LeftArm 141.049644 64.498955 48.298484
LeftForeArm 28.449387 -0.000000 122.739119
LeftHand -0.970527 -0.000000 -19.823904
LeftHandThumb1 -26.253704 0.000000 33.147579
RightShoulder -25.543087 24.515054 -45.851832
RightArm 115.262157 34.848041 90.316218
RightForeArm 24.378075 -0.000000 153.354502
RightHand 8.694445 -0.000000 4.817152
RightHandThumb1 -24.326973 -0.000000 -32.862282
LeftUpLeg 3.143918 16.081624 4.596288
LeftLeg -3.039290 -0.000000 0.000000
LeftFoot -8.377014 3.217830 -16.355339
LeftToeBase 11.218509 -0.000000 -0.000000
RightUpLeg -0.456401 -4.497275 -5.362681
RightLeg -0.448190 -0.000000 0.000000
RightFoot -5.711035 -2.124232 4.616645
RightToeBase 0.489979 -0.000000 -0.000000
